# xmcd CD database file
#
# Track frame offsets:
#	150
#	19478
#	36613
#	52968
#	68248
#	83655
#	99148
#	114375
#	133128
#	148503
#	169200
#	187718
#
# Disc length: 2721 seconds
#
# Revision: 4
# Processed by: cddbd v1.5.2PL0 Copyright (c) Steve Scherf et al.
# Submitted via: CDex 1.51
#
DISCID=9f0a9f0c
DTITLE=Al Bano and Romina Power - fragile
DYEAR=1988
DGENRE=Italien
TTITLE0=fragile
TTITLE1=sei tu
TTITLE2=africa africa
TTITLE3=che amici
TTITLE4=donna
TTITLE5=a miracle
TTITLE6=questa notte
TTITLE7=non persarci piu
TTITLE8=il bambino non `e piu re
TTITLE9=non voglio perderti
TTITLE10=era casa mia
TTITLE11=nessun dorma
EXTD=YEAR: 1988
EXTT0=
EXTT1=
EXTT2=
EXTT3=
EXTT4=
EXTT5=
EXTT6=
EXTT7=
EXTT8=
EXTT9=
EXTT10=
EXTT11=
PLAYORDER=
